# xmcd
#
# Track frame offsets:
#	150
#	15585
#	28518
#	43667
#	76905
#	95856
#	113359
#	133562
#	150853
#
# Disc length: 2170 seconds
#
# Revision: 1
# Processed by: cddbd v1.5.2PL0 Copyright (c) Steve Scherf et al.
# Submitted via: audiograbber 1.83.01
#
DISCID=5b087809
DTITLE=Ray Beadle - Spellbound
DYEAR=2012
DGENRE=Blues
TTITLE0=Southbound Line
TTITLE1=One Thing On My Mind
TTITLE2=Cant Shake These Blues
TTITLE3=Who Loves Ya Baby
TTITLE4=Temptation
TTITLE5=Let It Burn
TTITLE6=Whos Thinkin Twice
TTITLE7=Sign Of The Times
TTITLE8=Nail Biter
EXTD=
EXTT0=
EXTT1=
EXTT2=
EXTT3=
EXTT4=
EXTT5=
EXTT6=
EXTT7=
EXTT8=
PLAYORDER=
